<?xml version="1.0" encoding="UTF-8"?>
<svg id="Layer_2" data-name="Layer 2" xmlns="http://www.w3.org/2000/svg" viewBox="0 0 70.88 26.22">
  <defs>
    <style>
      .cls-1 {
        fill: #41175a;
      }

      .cls-1, .cls-2 {
        stroke-width: 0px;
      }

      .cls-2 {
        fill: #f15a29;
      }
    </style>
  </defs>
  <g id="Layer_1-2" data-name="Layer 1">
    <g>
      <polygon class="cls-2" points="50.7 14.45 52.84 14.45 52.84 14.96 51.29 14.96 51.29 15.87 52.75 15.87 52.75 16.37 51.29 16.37 51.29 17.76 50.7 17.76 50.7 14.45"/>
      <rect class="cls-2" x="53.39" y="14.45" width=".59" height="3.32"/>
      <polygon class="cls-2" points="54.71 14.45 55.49 14.45 57.03 16.93 57.04 16.93 57.04 14.45 57.63 14.45 57.63 17.76 56.88 17.76 55.31 15.2 55.3 15.2 55.3 17.76 54.71 17.76 54.71 14.45"/>
      <path class="cls-2" d="m60.16,16.5l-.51-1.35-.52,1.35h1.03Zm-.75-2.05h.51l1.43,3.32h-.67l-.31-.76h-1.44l-.3.76h-.66l1.44-3.32Z"/>
      <polygon class="cls-2" points="61.67 14.45 62.46 14.45 64 16.93 64.01 16.93 64.01 14.45 64.6 14.45 64.6 17.76 63.85 17.76 62.27 15.2 62.27 15.2 62.27 17.76 61.67 17.76 61.67 14.45"/>
      <path class="cls-2" d="m67.73,15.22c-.09-.12-.2-.21-.34-.26-.14-.05-.28-.08-.41-.08-.17,0-.33.03-.47.09-.14.06-.26.15-.36.26-.1.11-.18.24-.23.39-.05.15-.08.31-.08.48,0,.18.03.35.08.5.05.15.13.28.23.39.1.11.22.19.35.25.14.06.29.09.46.09s.34-.03.47-.1c.14-.07.25-.16.33-.28l.47.33c-.15.18-.33.33-.54.43-.21.1-.46.15-.74.15-.26,0-.5-.04-.71-.13-.22-.09-.4-.21-.56-.36-.16-.16-.28-.34-.36-.55-.09-.21-.13-.45-.13-.71s.05-.51.14-.72c.09-.21.22-.4.38-.55.16-.15.35-.27.57-.35.22-.08.46-.12.71-.12.11,0,.22.01.33.03.12.02.23.05.33.09.11.04.21.09.3.16.09.06.17.14.24.22l-.45.36Z"/>
      <polygon class="cls-2" points="68.59 14.45 70.79 14.45 70.79 14.96 69.18 14.96 69.18 15.8 70.71 15.8 70.71 16.3 69.18 16.3 69.18 17.24 70.88 17.24 70.88 17.76 68.59 17.76 68.59 14.45"/>
      <path class="cls-1" d="m0,24.43l1.59-1.84c.63.74,1.71,1.38,3.41,1.38,1.49,0,2.39-.49,2.39-1.38,0-.6-.41-1.04-1.71-1.26l-1.95-.33c-2.2-.39-3.25-1.71-3.25-3.27,0-2.34,2.34-3.96,5.25-3.96,2.01,0,3.74.77,4.51,1.92l-1.68,1.76c-.6-.88-1.71-1.43-3.03-1.43-1.21,0-2.01.49-2.01,1.38,0,.72.44,1.13,1.9,1.38l1.65.28c2.26.41,3.36,1.62,3.36,3.19,0,2.42-2.45,3.99-5.67,3.99-2.12,0-4.02-.69-4.79-1.79"/>
      <path class="cls-1" d="m12.21,7.79h1.04c1.13,0,1.6-.03,2.09-.19v18.35h-3.14V7.79Z"/>
      <path class="cls-1" d="m17.76,14.04h1.05c1.02,0,1.54-.03,2.09-.22v12.13h-3.14v-11.91Zm-.36-3.93c0-1.07.83-1.9,1.92-1.9s1.93.83,1.93,1.9-.83,1.9-1.93,1.9-1.92-.83-1.92-1.9"/>
      <path class="cls-1" d="m22.74,20.03c0-3.33,2.92-6.27,6.68-6.27,2.17,0,3.99.96,5.01,2.86l-2.2,1.62c-.72-1.29-1.76-1.92-2.97-1.92-1.9,0-3.25,1.54-3.25,3.74s1.27,3.63,3.38,3.63c1.46,0,2.59-.69,3.03-1.87l2.17,1.4c-.96,1.82-2.81,3-5.28,3-3.63,0-6.57-2.78-6.57-6.19"/>
      <path class="cls-1" d="m38.45,18.74h5.67c-.14-1.57-1.18-2.83-2.8-2.83s-2.67,1.32-2.86,2.83m-3.22,1.29c0-3.38,2.86-6.27,6.16-6.27s5.86,2.72,5.86,6.74h-8.83c.05,1.84,1.35,3.3,3.55,3.3,1.54,0,2.47-.66,2.97-1.79l2.23,1.21c-.91,1.79-2.7,3-5.31,3-3.82,0-6.63-2.81-6.63-6.19"/>
      <path class="cls-2" d="m47.12,8.79c-2.42,0-4.4-1.97-4.4-4.39,0-2.42,1.97-4.4,4.39-4.4v2.93c-.81,0-1.46.66-1.46,1.47,0,.81.66,1.47,1.47,1.47v2.93Z"/>
      <path class="cls-2" d="m51.07,10.15c-.79.8-1.89,1.29-3.11,1.29v-2.93c.81,0,1.46-.66,1.46-1.47s-.66-1.47-1.47-1.47v-2.93c2.42,0,4.4,1.97,4.4,4.39,0,1.21-.49,2.31-1.28,3.11"/>
    </g>
  </g>
</svg>