<?xml version="1.0" encoding="UTF-8"?>
<svg id="Layer_2" data-name="Layer 2" xmlns="http://www.w3.org/2000/svg" viewBox="0 0 9.63 11.44">
  <defs>
    <style>
      .cls-1 {
        fill: #f15a29;
        stroke-width: 0px;
      }
    </style>
  </defs>
  <g id="Layer_1-2" data-name="Layer 1">
    <g>
      <path class="cls-1" d="m4.4,8.79C1.98,8.8,0,6.83,0,4.4,0,1.98,1.97,0,4.39,0v2.93c-.81,0-1.46.66-1.46,1.47,0,.81.66,1.47,1.47,1.47v2.93Z"/>
      <path class="cls-1" d="m8.35,10.15c-.79.8-1.89,1.29-3.11,1.29v-2.93c.81,0,1.46-.66,1.46-1.47s-.66-1.47-1.47-1.47v-2.93c2.42,0,4.4,1.97,4.4,4.39,0,1.21-.49,2.31-1.28,3.11"/>
    </g>
  </g>
</svg>