<?xml version="1.0" encoding="utf-8"?>
<!-- Generator: Adobe Illustrator 28.0.0, SVG Export Plug-In . SVG Version: 6.00 Build 0)  -->
<svg version="1.1" id="Layer_2_00000090285715868822298690000000391410537110184340_"
	 xmlns="http://www.w3.org/2000/svg" xmlns:xlink="http://www.w3.org/1999/xlink" x="0px" y="0px" viewBox="0 0 199.4 199.4"
	 style="enable-background:new 0 0 199.4 199.4;" xml:space="preserve">
<style type="text/css">
	.st0{fill:#EF542B;}
</style>
<g id="Layer_1-2">
	<g>
		<path class="st0" d="M99.7,0C72.6,0,69.2,0.1,58.6,0.6C48,1.1,40.8,2.8,34.4,5.2c-6.6,2.6-12.1,6-17.7,11.5S7.8,27.8,5.2,34.4
			C2.8,40.7,1.1,48,0.6,58.6C0.1,69.2,0,72.6,0,99.7s0.1,30.5,0.6,41.1c0.5,10.6,2.2,17.9,4.6,24.2c2.6,6.6,6,12.1,11.5,17.7
			c5.5,5.5,11.1,8.9,17.7,11.5c6.3,2.5,13.6,4.1,24.2,4.6c10.6,0.5,14,0.6,41.1,0.6s30.5-0.1,41.1-0.6c10.6-0.5,17.9-2.2,24.2-4.6
			c6.6-2.6,12.1-6,17.7-11.5c5.5-5.5,8.9-11.1,11.5-17.7c2.5-6.3,4.1-13.6,4.6-24.2c0.5-10.6,0.6-14,0.6-41.1s-0.1-30.5-0.6-41.1
			c-0.5-10.6-2.2-17.9-4.6-24.2c-2.6-6.6-6-12.1-11.5-17.7S171.6,7.8,165,5.2c-6.3-2.5-13.6-4.2-24.2-4.6C130.2,0.1,126.8,0,99.7,0
			L99.7,0z M99.7,18c26.6,0,29.8,0.1,40.3,0.6c9.7,0.4,15,2.1,18.5,3.4c4.6,1.8,8,4,11.5,7.5s5.6,6.8,7.5,11.5
			c1.4,3.5,3,8.8,3.4,18.5c0.5,10.5,0.6,13.7,0.6,40.3s-0.1,29.8-0.6,40.3c-0.4,9.7-2.1,15-3.4,18.5c-1.8,4.6-4,8-7.5,11.5
			s-6.8,5.6-11.5,7.5c-3.5,1.4-8.8,3-18.5,3.4c-10.5,0.5-13.7,0.6-40.3,0.6s-29.8-0.1-40.3-0.6c-9.7-0.4-15-2.1-18.5-3.4
			c-4.7-1.8-8-4-11.5-7.5s-5.6-6.8-7.5-11.5c-1.4-3.5-3-8.8-3.4-18.5c-0.5-10.5-0.6-13.7-0.6-40.3s0.1-29.8,0.6-40.3
			c0.4-9.7,2.1-15,3.4-18.5c1.8-4.7,4-8,7.5-11.5s6.8-5.6,11.5-7.5c3.5-1.4,8.8-3,18.5-3.4C69.9,18.1,73.1,18,99.7,18z"/>
		<path class="st0" d="M99.7,133c-18.4,0-33.2-14.9-33.2-33.2s14.9-33.2,33.2-33.2S133,81.4,133,99.7S118.1,133,99.7,133z
			 M99.7,48.5c-28.3,0-51.2,22.9-51.2,51.2s22.9,51.2,51.2,51.2s51.2-22.9,51.2-51.2S128,48.5,99.7,48.5z"/>
		<path class="st0" d="M164.9,46.5c0,6.6-5.4,12-12,12s-12-5.4-12-12s5.4-12,12-12S164.9,39.9,164.9,46.5z"/>
	</g>
</g>
</svg>
