<?xml version="1.0" encoding="utf-8"?>
<!-- Generator: Adobe Illustrator 28.0.0, SVG Export Plug-In . SVG Version: 6.00 Build 0)  -->
<svg version="1.1" id="Layer_2_00000037650503759438541890000006671396760274054059_"
	 xmlns="http://www.w3.org/2000/svg" xmlns:xlink="http://www.w3.org/1999/xlink" x="0px" y="0px" viewBox="0 0 208.7 199.4"
	 style="enable-background:new 0 0 208.7 199.4;" xml:space="preserve">
<style type="text/css">
	.st0{fill:#EF542B;}
</style>
<g id="Layer_1-2">
	<path class="st0" d="M2.7,64.9h44.7v134.6H2.7V64.9z M25.3,0C10,0,0,10.1,0,23.2s9.7,23.3,24.7,23.3H25c15.6,0,25.3-10.3,25.3-23.3
		C50,10.1,40.6,0,25.3,0z M157.2,61.7c-23.7,0-34.4,13.1-40.3,22.2V64.9H72.1c0.6,12.6,0,134.6,0,134.6h44.7v-75.2
		c0-4,0.3-8,1.5-10.9c3.2-8,10.6-16.4,22.9-16.4c16.2,0,22.7,12.3,22.7,30.4v72h44.7v-77.2C208.7,80.9,186.6,61.7,157.2,61.7
		L157.2,61.7z"/>
</g>
</svg>
